<?xml version="1.0" encoding="UTF-8" standalone="no"?>
<!-- Generator: Adobe Illustrator 19.0.0, SVG Export Plug-In . SVG Version: 6.00 Build 0)  -->

<svg
   xmlns:dc="http://purl.org/dc/elements/1.1/"
   xmlns:cc="http://creativecommons.org/ns#"
   xmlns:rdf="http://www.w3.org/1999/02/22-rdf-syntax-ns#"
   xmlns:svg="http://www.w3.org/2000/svg"
   xmlns="http://www.w3.org/2000/svg"
   xmlns:sodipodi="http://sodipodi.sourceforge.net/DTD/sodipodi-0.dtd"
   xmlns:inkscape="http://www.inkscape.org/namespaces/inkscape"
   version="1.1"
   id="Layer_1"
   x="0px"
   y="0px"
   viewBox="0 0 700 700"
   xml:space="preserve"
   sodipodi:docname="free-fire-logo-2023.svg"
   width="700"
   height="700"
   inkscape:version="0.92.0 r15299"
   inkscape:export-filename="C:\Users\suitedoalex\sites\free-fire-logo-0.png"
   inkscape:export-xdpi="561.73712"
   inkscape:export-ydpi="561.73712"><metadata
     id="metadata22"><rdf:RDF><cc:Work
         rdf:about=""><dc:format>image/svg+xml</dc:format><dc:type
           rdf:resource="http://purl.org/dc/dcmitype/StillImage" /><dc:title></dc:title></cc:Work></rdf:RDF></metadata><defs
     id="defs20" /><sodipodi:namedview
     pagecolor="#ffffff"
     bordercolor="#666666"
     borderopacity="1"
     objecttolerance="10"
     gridtolerance="10"
     guidetolerance="10"
     inkscape:pageopacity="0"
     inkscape:pageshadow="2"
     inkscape:window-width="1920"
     inkscape:window-height="1017"
     id="namedview18"
     showgrid="false"
     width="700px"
     inkscape:zoom="0.5242704"
     inkscape:cx="396.79406"
     inkscape:cy="235.06095"
     inkscape:window-x="-8"
     inkscape:window-y="-8"
     inkscape:window-maximized="1"
     inkscape:current-layer="XMLID_17_" /><style
     type="text/css"
     id="style2">
	.st0{fill:#FCFBFA;}
	.st1{fill:#FFFFFF;}
	.st2{fill:#FDBA13;}
</style><g
     id="XMLID_1_"
     transform="translate(0,-92)"><g
       id="XMLID_17_"><path
         id="XMLID_27_"
         d="m 280.33862,483.94626 c 0.22359,-0.87235 0.43774,-1.74784 0.67079,-2.61703 1.28805,-4.81519 2.57923,-9.62725 3.87358,-14.4393 1.79191,-6.67325 3.58698,-13.34651 5.37261,-20.02292 1.82972,-6.83701 3.65312,-13.67718 5.47969,-20.5142 0.70858,-2.65166 1.4203,-5.30018 2.1352,-7.9487 0.0378,-0.14172 0.0913,-0.28028 0.1354,-0.4157 0.022,-0.009 0.0409,-0.0189 0.0599,-0.0283 0.0189,-0.006 0.0378,-0.0189 0.0599,-0.0189 23.17532,-0.003 46.35063,-0.006 69.5228,-0.009 0.0599,0 0.11967,0.0157 0.18896,0.0252 0.0283,0.20471 -0.13227,0.29919 -0.23306,0.41572 -1.50533,1.80452 -3.01697,3.60588 -4.52547,5.4041 -2.95713,3.52086 -5.91427,7.03857 -8.86828,10.55943 -0.0945,0.11337 -0.1921,0.2236 -0.28027,0.34012 -0.0693,0.0913 -0.15432,0.13541 -0.26769,0.13226 -0.18896,0 -0.37791,0.003 -0.56687,0.003 -11.96399,0 -23.93114,0 -35.89513,0 -2.08794,-0.13541 -4.39949,1.57462 -5.03249,3.67518 -0.1858,0.61095 -0.26769,1.22191 -0.11338,1.85805 0.25825,1.05815 0.92274,1.71004 1.94624,2.02182 0.38421,0.11652 0.78101,0.12912 1.18412,0.12912 4.80575,-0.003 9.61465,-0.003 14.42041,-0.003 5.64659,0 11.2932,0 16.93979,0 0.22675,0 0.45035,0 0.65821,0 0.0693,0.17321 -0.0378,0.23934 -0.0976,0.31178 -2.60128,3.10201 -5.2057,6.20401 -7.81013,9.30602 -1.90215,2.26746 -3.8043,4.53177 -5.70643,6.79923 -0.0945,0.11337 -0.18581,0.22675 -0.28343,0.33697 -0.0724,0.0819 -0.15746,0.12911 -0.27399,0.12597 -0.16692,-0.003 -0.33698,0 -0.50389,0 -7.26216,0 -14.52749,0.003 -21.78965,0 -2.15724,0 -3.7098,1.02665 -4.79001,2.82802 -0.38106,0.63615 -0.5763,1.34788 -0.56054,2.10055 0.0347,1.52423 1.11482,2.65482 2.63905,2.7556 0.33382,0.022 0.67079,0.022 1.00776,0.022 14.98726,0 29.97769,0 44.96497,0.003 0.24563,0 0.49444,-0.0347 0.76841,0.0472 -0.2236,0.8503 -0.44089,1.67856 -0.66134,2.50365 -1.25025,4.67349 -2.50051,9.34698 -3.75391,14.01731 -0.0284,0.10078 -0.0661,0.1984 -0.10077,0.29918 -23.30444,-0.003 -46.60886,-0.003 -69.9133,-0.003 z"
         inkscape:connector-curvature="0"
         style="stroke-width:0.03149248"
         inkscape:export-filename="C:\Users\suitedoalex\sites\free-fire-logo-4.png"
         inkscape:export-xdpi="64.912994"
         inkscape:export-ydpi="64.912994" /><path
         id="XMLID_26_"
         d="m 202.74114,483.94626 c -0.0283,-0.17321 0.0347,-0.32752 0.0756,-0.49128 1.77617,-6.61342 3.54921,-13.22684 5.32223,-19.84341 1.31008,-4.89394 2.61703,-9.79102 3.92711,-14.6881 1.85492,-6.93779 3.70981,-13.87873 5.56788,-20.81652 0.86288,-3.21538 1.73207,-6.43077 2.59811,-9.64614 0.0315,-0.11968 0.063,-0.24251 0.10078,-0.36217 0.0346,-0.11023 0.11023,-0.17007 0.2299,-0.16692 0.14802,0 0.29288,-0.003 0.4409,-0.003 22.88243,0 45.76172,0 68.64416,0.003 0.18265,0 0.3716,-0.0378 0.59204,0.0567 -0.0756,0.2047 -0.23303,0.34326 -0.35899,0.49444 -1.75099,2.09109 -3.50513,4.18219 -5.25925,6.27014 -2.67058,3.18389 -5.34429,6.36463 -8.01485,9.54537 -0.42828,0.51018 -0.42828,0.51018 -1.10223,0.51018 -11.98603,0 -23.97207,0 -35.96126,0 -2.047,-0.12597 -4.32391,1.52109 -5.00416,3.63423 -0.21729,0.67079 -0.28342,1.35103 -0.085,2.04071 0.27715,0.96997 0.92274,1.57778 1.8675,1.8675 0.31809,0.0976 0.6519,0.16377 0.99203,0.14487 0.14485,-0.009 0.29288,0 0.44089,0 10.37048,0 20.74094,0 31.11142,0 0.22988,0 0.45978,0 0.69597,0 0.0756,0.2173 -0.0945,0.31177 -0.19209,0.4283 -1.13058,1.35417 -2.26431,2.70206 -3.39803,4.04993 -3.34451,3.98695 -6.69531,7.9676 -10.02721,11.96714 -0.27084,0.32438 -0.53537,0.4472 -0.95108,0.44405 -6.38037,-0.0126 -12.7639,-0.009 -19.14427,-0.009 -0.98572,0 -1.97459,0.009 -2.96031,-0.003 -2.28949,-0.022 -4.50656,1.82342 -5.01988,3.9586 -0.16062,0.66764 -0.17638,1.33529 0.0787,1.97774 0.43145,1.08649 1.28489,1.61556 2.41232,1.74153 0.35272,0.0378 0.71175,0.0252 1.07075,0.0252 14.96837,0 29.93359,0 44.90198,0.003 0.24564,0 0.49757,-0.022 0.73692,0.0252 0.0378,0.22045 -0.0315,0.39681 -0.0787,0.57946 -1.44236,5.37892 -2.8847,10.76098 -4.32707,16.1399 -0.009,0.0409 -0.009,0.0819 -0.0157,0.12597 -23.29813,-0.003 -46.60258,-0.003 -69.90701,-0.003 z"
         inkscape:connector-curvature="0"
         style="stroke-width:0.03149248"
         inkscape:export-filename="C:\Users\suitedoalex\sites\free-fire-logo-4.png"
         inkscape:export-xdpi="64.912994"
         inkscape:export-ydpi="64.912994" /><path
         id="XMLID_25_"
         d="m 558.22825,483.94626 c 0.38421,-1.4581 0.76526,-2.91621 1.15575,-4.37116 1.42031,-5.30018 2.8438,-10.59722 4.26409,-15.89425 1.85806,-6.9378 3.70667,-13.87559 5.56787,-20.81338 1.69745,-6.32999 3.40435,-12.65683 5.10495,-18.98682 0.48497,-1.80137 0.95736,-3.60274 1.43604,-5.4041 0.0284,-0.10079 0.0724,-0.1984 0.0882,-0.30234 0.0252,-0.17635 0.11968,-0.25193 0.29603,-0.24564 0.16692,0.006 0.33698,0 0.50388,0 22.79427,0 45.58852,0 68.37963,0 0.25194,0 0.50387,0.006 0.75581,0.009 0,0.0409 0,0.085 0,0.12597 -0.11021,0.34327 -0.30231,0.63615 -0.53536,0.91328 -4.06883,4.85929 -8.14395,9.71543 -12.22853,14.56527 -1.44865,1.7195 -0.86604,1.45811 -3.16184,1.46126 -11.56719,0.009 -23.13438,0.003 -34.70157,0.006 -2.52569,0 -4.64828,1.78877 -5.04824,4.23889 -0.21416,1.29749 0.57946,2.54774 1.84231,2.9225 0.49128,0.14487 0.99202,0.15116 1.49905,0.15116 10.07759,0 20.15517,0 30.23277,0 0.14801,0 0.29603,-0.0126 0.44089,0.003 0.38106,0.0409 0.92273,-0.17321 1.08964,0.23935 0.15116,0.37791 -0.31492,0.68653 -0.56371,0.97941 -3.87359,4.58215 -7.72511,9.1895 -11.58294,13.79056 -0.48499,0.57946 -0.98886,1.14317 -1.46125,1.73208 -0.26768,0.33697 -0.60781,0.49759 -1.03611,0.49759 -0.50387,0 -1.00775,0.003 -1.51163,0.003 -6.84332,0 -13.68662,-0.003 -20.53309,0.003 -2.3147,0.003 -4.4247,1.6628 -4.93803,3.85468 -0.45033,1.92734 0.68655,3.39804 2.67057,3.45158 0.27397,0.006 0.54482,0.003 0.8188,0.003 14.77943,0 29.55884,0 44.33826,0 1.50534,0 1.52425,0.009 1.13058,1.48329 -1.30063,4.86558 -2.61702,9.73117 -3.91451,14.59676 -0.0945,0.35272 -0.11023,0.76212 -0.48813,0.98572 -23.30129,0 -46.60572,0 -69.91016,0 z"
         inkscape:connector-curvature="0"
         style="stroke-width:0.03149248"
         inkscape:export-filename="C:\Users\suitedoalex\sites\free-fire-logo-4.png"
         inkscape:export-xdpi="64.912994"
         inkscape:export-ydpi="64.912994" /><path
         id="XMLID_24_"
         d="m 172.63434,483.94626 c -0.0347,-0.21415 -0.1795,-0.37476 -0.28344,-0.55427 -3.89561,-6.48745 -7.79123,-12.97175 -11.69,-19.45921 -0.84084,-1.4014 -1.69114,-2.79967 -2.5194,-4.20739 -0.15746,-0.27083 -0.34327,-0.36216 -0.6519,-0.35901 -2.20447,0.0126 -4.40894,0.006 -6.61342,0.006 -6.71733,0 -13.43468,0 -20.15203,-0.003 -0.17006,0 -0.41885,0.11022 -0.50073,-0.0913 -0.063,-0.14802 0.15746,-0.27084 0.26138,-0.39681 4.47508,-5.33797 8.95331,-10.67595 13.43154,-16.01392 0.0536,-0.063 0.11022,-0.12597 0.16062,-0.19211 0.0945,-0.11967 0.21101,-0.1921 0.37475,-0.1858 0.18897,0.009 0.37791,0.003 0.56688,0.003 12.44897,0 24.89794,-0.009 37.34693,0.009 2.13203,0.003 4.19165,-1.45495 4.95375,-3.36969 0.28345,-0.71173 0.41886,-1.4455 0.20471,-2.21392 -0.24249,-0.86604 -0.77786,-1.47385 -1.59036,-1.83287 -0.40311,-0.17951 -0.83141,-0.28657 -1.28174,-0.27713 -0.16691,0.003 -0.33699,0 -0.50388,0 -15.26125,0 -30.52251,0 -45.78692,0 -0.211,0 -0.41885,-0.003 -0.62985,-0.006 -0.0819,-0.003 -0.12597,-0.11652 -0.0693,-0.18582 0.21414,-0.25823 0.4283,-0.51647 0.64559,-0.77156 4.34281,-5.17736 8.68562,-10.35158 13.03159,-15.52895 0.0661,-0.0787 0.13542,-0.16061 0.20156,-0.24248 0.085,-0.10393 0.19524,-0.14802 0.33066,-0.14488 0.14803,0.003 0.29288,0 0.44091,0 16.8768,0 33.75679,0 50.63359,0 1.65967,0 3.1965,0.40941 4.55697,1.37624 1.60926,1.14316 2.49736,2.72723 2.80598,4.66088 0.2047,1.28804 0.085,2.55089 -0.24878,3.80114 -1.19357,4.47194 -2.38714,8.94387 -3.587,13.41265 -0.73062,2.7304 -1.48331,5.45764 -2.20132,8.1912 -0.56057,2.14148 -1.63761,3.9838 -3.1335,5.58991 -1.56833,1.68485 -3.42638,2.9477 -5.60251,3.72871 -1.2534,0.45034 -2.54144,0.69283 -3.87988,0.68969 -3.92712,-0.006 -7.85108,-0.003 -11.77819,-0.003 -0.12597,0 -0.25193,0 -0.36846,0 -0.12282,0.18895 0.0378,0.28973 0.10392,0.39995 1.79822,3.00438 3.60275,6.00247 5.40411,9.0037 2.891,4.81835 5.78517,9.63355 8.67304,14.4519 0.13541,0.22674 0.34011,0.42515 0.35272,0.71487 -7.13305,0 -14.26925,0 -21.40859,0 z"
         inkscape:connector-curvature="0"
         style="stroke-width:0.03149248"
         inkscape:export-filename="C:\Users\suitedoalex\sites\free-fire-logo-4.png"
         inkscape:export-xdpi="64.912994"
         inkscape:export-ydpi="64.912994" /><path
         id="XMLID_23_"
         d="m 528.12142,483.94626 c 0.0536,-0.19526 -0.10076,-0.31178 -0.18265,-0.4472 -1.63761,-2.73355 -3.27836,-5.46394 -4.91912,-8.19434 -3.08626,-5.13957 -6.17568,-10.27915 -9.26194,-15.41871 -0.0976,-0.16062 -0.1984,-0.32123 -0.31808,-0.51333 -9.21784,0 -18.44829,0 -27.70393,0 -0.003,-0.22675 0.14487,-0.33067 0.2425,-0.4472 1.13058,-1.35417 2.2643,-2.70205 3.39803,-4.05308 3.22169,-3.84208 6.44652,-7.68731 9.66819,-11.52939 0.2299,-0.27399 0.41884,-0.6204 0.71173,-0.78732 0.31808,-0.18266 0.74007,-0.063 1.11483,-0.063 12.34505,-0.003 24.69011,-0.0126 37.03516,0.006 2.20447,0.003 4.32077,-1.58092 5.01675,-3.5555 0.23619,-0.67079 0.29603,-1.35418 0.11968,-2.04071 -0.30234,-1.18412 -1.3353,-1.96828 -2.62962,-2.0848 -0.2299,-0.022 -0.46295,-0.009 -0.69284,-0.009 -15.2833,0 -30.56975,0 -45.85305,0 -0.22674,0 -0.45349,0 -0.69598,0 -0.0284,-0.22675 0.12912,-0.32437 0.22675,-0.4409 1.34471,-1.61241 2.69576,-3.21853 4.04362,-4.82464 2.99495,-3.5681 5.98987,-7.1362 8.98797,-10.70429 0.10706,-0.12913 0.23303,-0.24564 0.32121,-0.38736 0.25824,-0.40941 0.60466,-0.53222 1.09594,-0.53222 16.87998,0.0126 33.75994,0.0126 50.6399,0.009 1.28175,0 2.49735,0.25509 3.64053,0.83771 2.00608,1.02035 3.1965,2.66425 3.64368,4.84984 0.28659,1.40141 0.17951,2.79338 -0.18895,4.17275 -0.94478,3.52086 -1.88326,7.04172 -2.82802,10.56257 -0.99203,3.70352 -1.99348,7.40074 -2.97919,11.10425 -0.52278,1.96514 -1.49589,3.68148 -2.83117,5.19626 -1.7006,1.92419 -3.74761,3.33821 -6.19773,4.14756 -1.16207,0.38421 -2.35563,0.58576 -3.58383,0.58261 -3.88303,-0.006 -7.76921,-0.003 -11.65222,-0.003 -0.16692,0 -0.33069,0 -0.50074,0 -0.0315,0.2362 0.11968,0.37161 0.21101,0.52593 2.93194,4.89078 5.86389,9.77841 8.79899,14.66604 1.87695,3.12721 3.75705,6.25441 5.63716,9.38161 -7.17399,-0.006 -14.35427,-0.006 -21.53457,-0.006 z"
         inkscape:connector-curvature="0"
         style="stroke-width:0.03149248"
         inkscape:export-filename="C:\Users\suitedoalex\sites\free-fire-logo-4.png"
         inkscape:export-xdpi="64.912994"
         inkscape:export-ydpi="64.912994" /><path
         id="XMLID_22_"
         d="m 54.222635,483.69432 c 0.16377,0.006 0.20785,-0.11338 0.23934,-0.23934 0.12596,-0.4661 0.25194,-0.92903 0.37476,-1.39513 1.54313,-5.76627 3.08942,-11.52939 4.63253,-17.29566 1.14949,-4.28927 2.29581,-8.57855 3.44214,-12.86783 1.35733,-5.07658 2.71465,-10.15632 4.07513,-15.2329 1.62186,-6.04972 3.24371,-12.09627 4.86874,-18.14282 0.0472,-0.18266 0.10392,-0.36217 0.15117,-0.53223 0.0346,-0.0157 0.0536,-0.0252 0.0724,-0.0315 0.0189,-0.006 0.0378,-0.0189 0.0599,-0.0189 0.18895,-0.003 0.37791,-0.009 0.56685,-0.009 23.02731,0.003 46.057745,0.006 69.085055,0.0126 0.0157,0 0.0315,0.0189 0.0756,0.0504 -0.0126,0.1669 -0.16059,0.26768 -0.25823,0.38735 -1.899,2.2706 -3.80113,4.53492 -5.70328,6.80237 -2.57608,3.07052 -5.15533,6.13789 -7.73141,9.2084 -0.0819,0.0976 -0.16692,0.18895 -0.24249,0.28974 -0.0693,0.0945 -0.15746,0.12911 -0.27084,0.12911 -0.18896,0 -0.3779,0 -0.56687,0 -11.96713,0 -23.93113,0 -35.898255,0 -1.78878,-0.13227 -4.10347,1.21561 -4.94747,3.44843 -0.2551,0.67394 -0.35901,1.37307 -0.17951,2.0974 0.25509,1.02665 0.89752,1.68799 1.89585,1.99662 0.31807,0.0976 0.65188,0.16376 0.99201,0.14486 0.16692,-0.009 0.33697,-0.003 0.50387,-0.003 14.735325,0 29.473815,0 44.209135,0 0.24564,0 0.49129,0 0.72119,0 0.0661,0.19526 -0.0599,0.27399 -0.13227,0.35902 -1.59038,1.899 -3.18389,3.79485 -4.77426,5.69069 -2.50995,2.98864 -5.01676,5.98042 -7.5267,8.96906 -0.45979,0.54797 -0.92589,1.08649 -1.37307,1.64076 -0.13227,0.16376 -0.27714,0.23619 -0.48185,0.22045 -0.16689,-0.0126 -0.33697,-0.003 -0.50387,-0.003 -12.7639,0 -25.527815,0 -38.291705,0.003 -0.24564,0 -0.54796,-0.11023 -0.72117,0.0724 -0.14172,0.14801 -0.15431,0.42514 -0.21416,0.64559 -1.15577,4.30818 -2.31154,8.61635 -3.46731,12.92451 -0.95423,3.55865 -1.91159,7.12045 -2.86581,10.6791 -0.022,0.0787 -0.0284,0.16377 -0.041,0.24564 -6.59137,0 -13.18589,0 -19.77727,0 0.003,-0.0787 0.003,-0.16061 0.003,-0.24564 z"
         inkscape:connector-curvature="0"
         style="stroke-width:0.03149248"
         inkscape:export-filename="C:\Users\suitedoalex\sites\free-fire-logo-4.png"
         inkscape:export-xdpi="64.912994"
         inkscape:export-ydpi="64.912994" /><path
         id="XMLID_21_"
         d="m 373.43038,483.94626 c 0.25509,-0.92903 0.51333,-1.85491 0.76212,-2.78394 1.40771,-5.24035 2.81227,-10.47754 4.21684,-15.71789 1.40456,-5.23721 2.80913,-10.47755 4.21369,-15.71475 1.41087,-5.25924 2.81858,-10.51848 4.2263,-15.78088 1.36991,-5.11753 2.73984,-10.2382 4.10661,-15.35573 0.17636,-0.66135 0.17321,-0.6645 0.86604,-0.6645 22.8415,0 45.68299,0 68.52449,0 0.20785,0 0.41254,0 0.61096,0 0.063,0.21731 -0.0945,0.29604 -0.17951,0.39682 -2.80284,3.3445 -5.61197,6.68899 -8.41795,10.03349 -1.67225,1.99348 -3.34451,3.98695 -5.0199,5.98042 -0.0819,0.0976 -0.1606,0.19211 -0.23935,0.28974 -0.0976,0.11967 -0.21099,0.1921 -0.37475,0.1795 -0.1669,-0.009 -0.33698,-0.003 -0.50388,-0.003 -11.94509,0 -23.8902,0 -35.83844,0 -1.88955,-0.14171 -4.04993,1.22821 -4.91597,3.21539 -0.28973,0.66449 -0.42515,1.35732 -0.31493,2.0848 0.17636,1.15577 0.8377,1.8927 1.93679,2.23912 0.31807,0.10077 0.6519,0.16376 0.99202,0.14486 0.14486,-0.009 0.29287,0 0.44089,0 14.77942,0 29.55884,0 44.33826,0 0.22359,0 0.45034,0.009 0.66448,0.0157 0.0536,0.18895 -0.0787,0.25824 -0.15116,0.34641 -1.87065,2.23597 -3.74445,4.47194 -5.62141,6.70791 -2.61702,3.11775 -5.23405,6.2355 -7.85421,9.35325 -0.47239,0.56372 -0.29603,0.45665 -1.00147,0.45665 -12.80484,0.003 -25.61284,0.003 -38.41767,0.003 -0.24879,0 -0.50073,0 -0.78732,0 -0.14485,0.51962 -0.28658,1.0172 -0.422,1.51479 -1.58722,5.92688 -3.17758,11.85377 -4.76166,17.78065 -0.44404,1.65965 -0.88179,3.31931 -1.32584,4.97896 -0.0283,0.10078 -0.0693,0.1984 -0.10706,0.29603 -6.54414,0.003 -13.09457,0.003 -19.64501,0.003 z"
         inkscape:connector-curvature="0"
         style="stroke-width:0.03149248"
         inkscape:export-filename="C:\Users\suitedoalex\sites\free-fire-logo-4.png"
         inkscape:export-xdpi="64.912994"
         inkscape:export-ydpi="64.912994" /><path
         id="XMLID_19_"
         class="st2"
         d="m 486.67732,400.0503 c 0.003,1.2156 0.009,2.43437 0.009,3.64997 0,3.06423 -0.003,6.12844 0.003,9.19265 0,0.38107 -0.0441,0.74638 -0.14172,1.11799 -1.95883,7.28736 -3.91451,14.57787 -5.86705,21.86523 -1.59667,5.95208 -3.19018,11.90731 -4.7837,17.85938 -0.0535,0.20155 -0.11968,0.40311 -0.15117,0.61095 -0.0945,0.59522 0.29603,1.07705 0.90068,1.12429 0.14487,0.0126 0.29289,0.003 0.4409,0.003 1.2597,0 2.51941,0 3.7791,0 0.148,0 0.29288,-0.006 0.44089,0.003 0.49443,0.0252 0.69283,0.25193 0.57631,0.74007 -0.1984,0.83455 -0.42828,1.6628 -0.66134,2.49106 -0.11652,0.41255 -0.48498,0.72117 -0.93848,0.68968 -0.14486,-0.009 -0.29288,0 -0.44089,0 -10.05555,0 -20.11108,0 -30.16349,0 -0.18896,0 -0.37791,0.006 -0.56687,-0.009 -0.31808,-0.0315 -0.48183,-0.23619 -0.45663,-0.55742 0.009,-0.10392 0.0377,-0.20469 0.0661,-0.30547 0.18894,-0.73063 0.37476,-1.46125 0.57001,-2.19188 0.17005,-0.62985 0.45978,-0.8503 1.13687,-0.85344 1.40772,-0.006 2.81229,-0.009 4.22,0.003 0.54482,0.006 0.97312,-0.21415 1.33843,-0.58891 0.211,-0.21415 0.35587,-0.47554 0.4157,-0.76527 0.11968,-0.57316 0.47554,-0.95738 0.92272,-1.30064 2.9792,-2.28951 5.95208,-4.58215 8.92813,-6.87796 0.15116,-0.11652 0.29917,-0.22989 0.44404,-0.35271 0.11338,-0.0945 0.20156,-0.20785 0.24564,-0.35587 0.063,-0.2173 -0.0598,-0.44404 -0.28029,-0.47239 -0.1669,-0.022 -0.33382,-0.0157 -0.50387,-0.0189 -2.11944,0 -4.23889,0 -6.36147,0 -0.18897,0 -0.37791,0.006 -0.56373,-0.022 -0.22044,-0.0347 -0.37475,-0.24249 -0.32437,-0.46295 0.11337,-0.51017 0.22046,-1.02665 0.42515,-1.51163 0.13541,-0.31808 0.37162,-0.55112 0.64559,-0.75897 1.71006,-1.29119 3.41379,-2.58553 5.12069,-3.87672 1.37307,-1.03926 2.74298,-2.07851 4.11607,-3.11776 0.11652,-0.0882 0.23618,-0.17636 0.33381,-0.28343 0.13542,-0.14802 0.1921,-0.33068 0.11023,-0.52593 -0.0756,-0.17635 -0.23305,-0.2299 -0.41256,-0.23304 -0.16691,-0.003 -0.33696,-0.003 -0.50387,-0.003 -2.01553,0 -4.03104,0 -6.04657,0 -0.18894,0 -0.37791,0.006 -0.56685,-0.0189 -0.2236,-0.0283 -0.38422,-0.23305 -0.33383,-0.45034 0.0976,-0.40626 0.20471,-0.81566 0.34327,-1.20931 0.11337,-0.32438 0.36217,-0.55742 0.633,-0.76527 1.20301,-0.91643 2.39657,-1.83916 3.59645,-2.75874 1.91474,-1.46755 3.83263,-2.9351 5.74737,-4.40265 0.13227,-0.10078 0.26453,-0.20785 0.39365,-0.31493 0.11338,-0.0976 0.19525,-0.21415 0.23305,-0.36531 0.0598,-0.22674 -0.063,-0.42829 -0.29918,-0.45034 -0.16692,-0.0157 -0.33382,-0.0126 -0.50388,-0.0126 -1.7006,0 -3.40119,0 -5.10177,0 -0.2299,0 -0.4598,0.0126 -0.68656,-0.0536 -0.55741,-0.15746 -0.84084,-0.56056 -0.74636,-1.13058 0.0378,-0.22359 0.12597,-0.44089 0.20471,-0.6582 0.71488,-1.91159 1.6187,-3.73184 2.65795,-5.48599 1.46126,-2.46586 3.19334,-4.72387 5.18052,-6.79292 3.09886,-3.22168 6.6512,-5.83241 10.63187,-7.85107 0.67079,-0.34012 1.37621,-0.6204 2.06274,-0.93533 0.14488,-0.0661 0.32752,-0.0787 0.40941,-0.25194 0.0378,0.003 0.0819,0.003 0.12282,0.003 z"
         inkscape:connector-curvature="0"
         style="fill:#fdba13;stroke-width:0.03149248"
         inkscape:export-filename="C:\Users\suitedoalex\sites\free-fire-logo-4.png"
         inkscape:export-xdpi="64.912994"
         inkscape:export-ydpi="64.912994" /><path
         id="XMLID_18_"
         class="st2"
         d="m 449.64217,483.94626 c -0.0346,-0.17321 0.022,-0.33067 0.0661,-0.49128 1.00776,-3.74131 2.01238,-7.48577 3.01698,-11.22708 0.65191,-2.42806 1.30379,-4.85613 1.95569,-7.28105 0.0441,-0.16061 0.0787,-0.32753 0.13856,-0.48184 0.27715,-0.70228 0.77787,-1.13058 1.54314,-1.20302 0.18579,-0.0189 0.37791,-0.0189 0.56686,-0.0189 4.46879,0 8.93441,0 13.4032,0 0.20784,0 0.422,0 0.6267,0.0284 0.56371,0.0756 0.89438,0.47868 0.85344,1.0424 -0.009,0.14487 -0.0504,0.28973 -0.0882,0.42829 -0.55111,2.1289 -1.10537,4.25779 -1.65964,6.38668 -0.79676,3.06107 -1.57777,6.12528 -2.39659,9.18006 -0.50388,1.8864 -1.74467,3.05477 -3.64052,3.52086 -0.10079,0.0252 -0.20785,0.0315 -0.28028,0.11967 -4.69869,-0.003 -9.40366,-0.003 -14.10549,-0.003 z"
         inkscape:connector-curvature="0"
         style="fill:#fdba13;stroke-width:0.03149248"
         inkscape:export-filename="C:\Users\suitedoalex\sites\free-fire-logo-4.png"
         inkscape:export-xdpi="64.912994"
         inkscape:export-ydpi="64.912994" /></g></g></svg>